<svg width="19" height="21" viewBox="0 0 19 21" fill="none" xmlns="http://www.w3.org/2000/svg">
<path fill-rule="evenodd" clip-rule="evenodd" d="M12.7159 15.404H5.49585C5.08185 15.404 4.74585 15.0759 4.74585 14.6716C4.74585 14.2673 5.08185 13.9391 5.49585 13.9391H12.7159C13.1299 13.9391 13.4659 14.2673 13.4659 14.6716C13.4659 15.0759 13.1299 15.404 12.7159 15.404Z" fill="white"/>
<path fill-rule="evenodd" clip-rule="evenodd" d="M12.7159 11.3156H5.49585C5.08185 11.3156 4.74585 10.9875 4.74585 10.5832C4.74585 10.1789 5.08185 9.85077 5.49585 9.85077H12.7159C13.1299 9.85077 13.4659 10.1789 13.4659 10.5832C13.4659 10.9875 13.1299 11.3156 12.7159 11.3156Z" fill="white"/>
<path fill-rule="evenodd" clip-rule="evenodd" d="M8.25061 7.23669H5.49561C5.08161 7.23669 4.74561 6.90857 4.74561 6.50427C4.74561 6.09998 5.08161 5.77185 5.49561 5.77185H8.25061C8.66461 5.77185 9.00061 6.09998 9.00061 6.50427C9.00061 6.90857 8.66461 7.23669 8.25061 7.23669Z" fill="white"/>
<mask id="mask0_1645_109" style="mask-type:alpha" maskUnits="userSpaceOnUse" x="0" y="0" width="19" height="21">
<path fill-rule="evenodd" clip-rule="evenodd" d="M0 0.781433H18.1647V20.2246H0V0.781433Z" fill="white"/>
</mask>
<g mask="url(#mask0_1645_109)">
<path fill-rule="evenodd" clip-rule="evenodd" d="M12.9088 2.24609L5.21976 2.25C2.89176 2.26367 1.49976 3.66992 1.49976 6.0127V14.9932C1.49976 17.3516 2.90476 18.7598 5.25576 18.7598L12.9448 18.7568C15.2728 18.7432 16.6648 17.335 16.6648 14.9932V6.0127C16.6648 3.6543 15.2608 2.24609 12.9088 2.24609ZM5.25676 20.2246C2.11276 20.2246 -0.000244141 18.1221 -0.000244141 14.9932V6.0127C-0.000244141 2.85547 2.04676 0.803711 5.21476 0.785156L12.9078 0.78125H12.9088C16.0528 0.78125 18.1648 2.88379 18.1648 6.0127V14.9932C18.1648 18.1494 16.1178 20.2021 12.9498 20.2217L5.25676 20.2246Z" fill="white"/>
</g>
</svg>
