<svg width="21" height="22" viewBox="0 0 21 22" fill="none" xmlns="http://www.w3.org/2000/svg">
<path fill-rule="evenodd" clip-rule="evenodd" d="M11.7168 14.9329C12.9208 14.9329 13.9008 15.8831 13.9008 17.0511V20.055C13.9008 20.3059 14.1068 20.5071 14.3708 20.513H16.2768C17.7788 20.513 18.9998 19.3352 18.9998 17.888V9.36844C18.9928 8.87039 18.7498 8.40164 18.3328 8.09012L11.7398 2.95535C10.8548 2.27078 9.61676 2.27078 8.72876 2.95731L2.18076 8.08817C1.74776 8.40945 1.50476 8.8782 1.49976 9.38504V17.888C1.49976 19.3352 2.72076 20.513 4.22276 20.513H6.14676C6.41776 20.513 6.63776 20.303 6.63776 20.0452C6.63776 19.9886 6.64476 19.9319 6.65676 19.8782V17.0511C6.65676 15.8899 7.63076 14.9407 8.82576 14.9329H11.7168ZM16.2768 21.9778H14.3528C13.2508 21.9524 12.4008 21.1077 12.4008 20.055V17.0511C12.4008 16.6907 12.0938 16.3977 11.7168 16.3977H8.83076C8.46176 16.3997 8.15676 16.6936 8.15676 17.0511V20.0452C8.15676 20.1184 8.14676 20.1887 8.12576 20.2552C8.01776 21.222 7.17176 21.9778 6.14676 21.9778H4.22276C1.89376 21.9778 -0.000244141 20.1428 -0.000244141 17.888V9.3782C0.00975586 8.4075 0.467756 7.51883 1.25876 6.93387L7.79376 1.8118C9.23276 0.698517 11.2378 0.698517 12.6738 1.80985L19.2558 6.9368C20.0288 7.51199 20.4868 8.39871 20.4998 9.3577V17.888C20.4998 20.1428 18.6058 21.9778 16.2768 21.9778Z" fill="white"/>
</svg>
