<svg width="18" height="18" viewBox="0 0 18 18" fill="none" xmlns="http://www.w3.org/2000/svg">
<path d="M1.41067 2.61548L1.98466 2.13274L1.98466 2.13274L1.41067 2.61548ZM16.646 2.61548L16.072 2.13274L16.646 2.61548ZM10.8 14.15L11.25 14.75L10.8 14.15ZM11.1173 9.18921L11.6913 9.67195L11.1173 9.18921ZM6.88266 9.12185L7.45665 8.63912L6.88266 9.12185ZM7.45665 8.63912L1.98466 2.13274L0.83668 3.09822L6.30867 9.60459L7.45665 8.63912ZM1.98466 2.13274C1.84789 1.97012 1.9635 1.72183 2.17599 1.72183V0.221832C0.68857 0.221832 -0.120699 1.95987 0.83668 3.09822L1.98466 2.13274ZM2.17599 1.72183H15.8807V0.221832H2.17599V1.72183ZM15.8807 1.72183C16.0932 1.72183 16.2088 1.97012 16.072 2.13274L17.22 3.09822C18.1774 1.95987 17.3681 0.221832 15.8807 0.221832V1.72183ZM16.072 2.13274L10.5434 8.70648L11.6913 9.67195L17.22 3.09822L16.072 2.13274ZM10.25 9.51104V13.75H11.75V9.51104H10.25ZM10.35 13.55L7.35 15.8L8.25 17L11.25 14.75L10.35 13.55ZM7.75 16V9.44368H6.25V16H7.75ZM7.35 15.8C7.51481 15.6764 7.75 15.794 7.75 16H6.25C6.25 17.0301 7.42595 17.618 8.25 17L7.35 15.8ZM10.25 13.75C10.25 13.6713 10.287 13.5972 10.35 13.55L11.25 14.75C11.5648 14.5139 11.75 14.1435 11.75 13.75H10.25ZM10.5434 8.70648C10.3539 8.93176 10.25 9.21668 10.25 9.51104H11.75C11.75 9.56991 11.7292 9.6269 11.6913 9.67195L10.5434 8.70648ZM6.30867 9.60459C6.27078 9.55953 6.25 9.50255 6.25 9.44368H7.75C7.75 9.14932 7.64612 8.8644 7.45665 8.63912L6.30867 9.60459Z" fill="#F2F2F2"/>
</svg>
